<?xml version="1.0" standalone="no"?><!DOCTYPE svg PUBLIC "-//W3C//DTD SVG 1.1//EN" "http://www.w3.org/Graphics/SVG/1.1/DTD/svg11.dtd"><svg t="1670058832267" class="icon" viewBox="0 0 1024 1024" version="1.1" xmlns="http://www.w3.org/2000/svg" p-id="3963" data-spm-anchor-id="a313x.7781069.0.i6" width="32" height="32" xmlns:xlink="http://www.w3.org/1999/xlink"><path d="M846.4 169.6l11.2-6.4c1.6-22.4-5.6-46.4-23.2-63.2-31.2-31.2-81.6-31.2-112.8 0-31.2 31.2-31.2 81.6 0 112.8l11.2 11.2-509.6 508.8-11.2-11.2c-31.2-31.2-81.6-31.2-112.8 0s-31.2 81.6 0 112.8c21.6 21.6 52 28 78.4 20l-11.2 6.4c-1.6 22.4 5.6 46.4 23.2 63.2 31.2 31.2 81.6 31.2 112.8 0 31.2-31.2 31.2-81.6 0-112.8l-11.2-11.2L800 291.2l11.2 11.2c31.2 31.2 81.6 31.2 112.8 0 31.2-31.2 31.2-81.6 0-112.8-20-21.6-50.4-28-77.6-20z" fill="#ff6d00" p-id="3964"></path><path d="M656 436l144.8-144.8 11.2 11.2c31.2 31.2 81.6 31.2 112.8 0s31.2-81.6 0-112.8c-31.2-31.2-81.6-31.2-112.8 0M166.4 861.6c-1.6 22.4 5.6 46.4 23.2 63.2 31.2 31.2 81.6 31.2 112.8 0 31.2-31.2 31.2-81.6 0-112.8l-11.2-11.2L580 512" fill="#ff6d00" p-id="3965"></path><path d="M941.6 172.8c-16.8-16.8-38.4-27.2-60.8-29.6-2.4-23.2-12.8-44-29.6-60.8-40.8-40.8-106.4-40.8-147.2 0-20 20-30.4 45.6-30.4 73.6 0 24.8 8.8 48.8 24.8 68L432.8 488.8c-9.6 9.6-1.6 16.8 8 25.6 4.8 4.8 3.2 15.2 8.8 15.2 6.4 0 12-2.4 16.8-7.2L748.8 240c4.8-4.8 7.2-10.4 7.2-16.8s-2.4-12.8-7.2-16.8l-11.2-11.2c-10.4-10.4-16-24.8-16-40s5.6-28.8 16-39.2c21.6-21.6 57.6-21.6 79.2 0 8.8 8.8 14.4 20 16 32-14.4 4.8-27.2 12.8-38.4 24-9.6 9.6-9.6 24.8 0 33.6 9.6 9.6 24.8 9.6 33.6 0 21.6-21.6 57.6-21.6 79.2 0s21.6 57.6 0 79.2-57.6 21.6-79.2 0l-11.2-11.2c-9.6-9.6-24.8-9.6-33.6 0l-144 145.6c-9.6 9.6-9.6 24.8 0 33.6 4.8 4.8 11.2 7.2 16.8 7.2s12-2.4 16.8-7.2l128-128c40.8 35.2 102.4 33.6 140.8-5.6 40.8-40 40.8-106.4 0-146.4z" fill="#ff6d00" p-id="3966"></path><path d="M588.8 503.2c-9.6-9.6-16.8-17.6-25.6-8l-288.8 288c-4.8 4.8-7.2 10.4-7.2 16.8s2.4 12.8 7.2 16.8l11.2 11.2c10.4 10.4 16 24.8 16 39.2 0 15.2-5.6 28.8-16 40-21.6 21.6-57.6 21.6-79.2 0a55.68 55.68 0 0 1-16-32c14.4-4.8 27.2-12.8 38.4-24 9.6-9.6 9.6-24.8 0-33.6-9.6-9.6-24.8-9.6-33.6 0-21.6 21.6-57.6 21.6-79.2 0s-21.6-57.6 0-79.2 57.6-21.6 79.2 0l11.2 11.2c4.8 4.8 10.4 7.2 16.8 7.2s12.8-2.4 16.8-7.2l144.8-144.8c9.6-9.6 9.6-24.8 0-33.6-9.6-9.6-24.8-9.6-33.6 0l-128 128c-40.8-35.2-102.4-33.6-140.8 4.8-40.8 40.8-40.8 106.4 0 147.2 16.8 16.8 38.4 27.2 60.8 29.6 2.4 23.2 12.8 44 29.6 60.8 20 20 47.2 30.4 73.6 30.4 26.4 0 53.6-10.4 73.6-30.4 20-20 30.4-45.6 30.4-73.6 0-24.8-8.8-48.8-24.8-68l272-272c8.8-8.8 0.8-15.2-8.8-24.8z" fill="#ff6d00" p-id="3967" data-spm-anchor-id="a313x.7781069.0.i7" class=""></path><path d="M169.6 177.6l-6.4-11.2c-22.4-1.6-46.4 5.6-63.2 23.2-31.2 31.2-31.2 81.6 0 112.8 31.2 31.2 81.6 31.2 112.8 0l11.2-11.2L732.8 800l-11.2 11.2c-31.2 31.2-31.2 81.6 0 112.8 31.2 31.2 81.6 31.2 112.8 0 21.6-21.6 28-52 20-78.4l6.4 11.2c22.4 1.6 46.4-5.6 63.2-23.2 31.2-31.2 31.2-81.6 0-112.8s-81.6-31.2-112.8 0l-11.2 11.2-508.8-508.8 11.2-11.2c31.2-31.2 31.2-81.6 0-112.8-31.2-31.2-81.6-31.2-112.8 0-21.6 20.8-28 51.2-20 78.4z" fill="#ff6d00" p-id="3968"></path><path d="M861.6 857.6c22.4 1.6 46.4-5.6 63.2-23.2 31.2-31.2 31.2-81.6 0-112.8s-81.6-31.2-112.8 0l-11.2 11.2-509.6-509.6 11.2-11.2c31.2-31.2 31.2-81.6 0-112.8s-81.6-31.2-112.8 0-31.2 81.6 0 112.8" fill="#ff6d00" p-id="3969"></path><path d="M972 777.6c0-28-11.2-53.6-30.4-73.6-20-20-45.6-30.4-73.6-30.4-24.8 0-48.8 8.8-68 24.8L324.8 223.2c16-19.2 24.8-42.4 24.8-68 0-28-11.2-53.6-30.4-73.6-20-20-45.6-30.4-73.6-30.4-28 0-53.6 11.2-73.6 30.4-16.8 16.8-27.2 37.6-29.6 60.8-23.2 2.4-44 12.8-60.8 29.6-40.8 40.8-40.8 106.4 0 147.2 38.4 38.4 100 40.8 141.6 5.6L698.4 800c-35.2 40.8-32.8 102.4 5.6 141.6 20 20 45.6 30.4 73.6 30.4s53.6-11.2 73.6-30.4c16.8-16.8 27.2-38.4 29.6-60.8 23.2-2.4 44-12.8 60.8-29.6 20-19.2 30.4-45.6 30.4-73.6z m-64 40a55.68 55.68 0 0 1-32 16c-4.8-14.4-12.8-27.2-24-38.4-9.6-9.6-24.8-9.6-33.6 0-9.6 9.6-9.6 24.8 0 33.6 10.4 10.4 16 24.8 16 40s-5.6 28.8-16 39.2c-10.4 10.4-24.8 16.8-40 16.8s-28.8-5.6-39.2-16c-21.6-21.6-21.6-57.6 0-79.2l11.2-11.2c4.8-4.8 7.2-10.4 7.2-16.8s-2.4-12.8-7.2-16.8L240.8 274.4c-8.8-8.8-24.8-8.8-33.6 0l-11.2 11.2c-21.6 21.6-57.6 21.6-79.2 0s-21.6-57.6 0-79.2c8.8-8.8 20-14.4 32-16 4.8 14.4 13.6 27.2 24 38.4 9.6 9.6 24.8 9.6 33.6 0 9.6-9.6 9.6-24.8 0-33.6-10.4-10.4-16.8-24.8-16.8-40s5.6-28.8 16.8-39.2c21.6-21.6 57.6-21.6 79.2 0 10.4 10.4 16 24.8 16 39.2 0 15.2-5.6 28.8-16 40l-11.2 11.2c-9.6 9.6-9.6 24.8 0 33.6l508.8 508.8c8.8 8.8 24.8 8.8 33.6 0l11.2-11.2c21.6-21.6 57.6-21.6 79.2 0 22.4 22.4 22.4 58.4 0.8 80z" fill="#ff6d00" p-id="3970"></path></svg>